<svg width="25" height="26" viewBox="0 0 25 26" fill="none" xmlns="http://www.w3.org/2000/svg">
<path d="M13.7247 12.5034L20.633 5.59507C20.7696 5.43565 20.8409 5.23059 20.8328 5.02086C20.8247 4.81113 20.7377 4.61218 20.5893 4.46376C20.4409 4.31535 20.242 4.22841 20.0322 4.22031C19.8225 4.21221 19.6175 4.28354 19.458 4.42007L12.5497 11.3284L5.64137 4.41173C5.48445 4.25481 5.27162 4.16666 5.0497 4.16666C4.82778 4.16666 4.61495 4.25481 4.45803 4.41173C4.30111 4.56865 4.21296 4.78148 4.21296 5.0034C4.21296 5.22532 4.30111 5.43815 4.45803 5.59507L11.3747 12.5034L4.45803 19.4117C4.3708 19.4864 4.29995 19.5784 4.24993 19.6818C4.19991 19.7851 4.1718 19.8978 4.16737 20.0125C4.16294 20.1273 4.18227 20.2417 4.22417 20.3487C4.26606 20.4556 4.32961 20.5527 4.41083 20.6339C4.49204 20.7152 4.58916 20.7787 4.6961 20.8206C4.80304 20.8625 4.91748 20.8818 5.03225 20.8774C5.14701 20.873 5.25962 20.8449 5.36301 20.7948C5.4664 20.7448 5.55833 20.674 5.63303 20.5867L12.5497 13.6784L19.458 20.5867C19.6175 20.7233 19.8225 20.7946 20.0322 20.7865C20.242 20.7784 20.4409 20.6914 20.5893 20.543C20.7377 20.3946 20.8247 20.1957 20.8328 19.9859C20.8409 19.7762 20.7696 19.5712 20.633 19.4117L13.7247 12.5034Z" fill="black"/>
</svg>
