<svg width="25" height="25" viewBox="0 0 25 25" fill="none" xmlns="http://www.w3.org/2000/svg">
<path fill-rule="evenodd" clip-rule="evenodd" d="M2.50002 5C2.27901 5 2.06704 5.0878 1.91076 5.24408C1.75448 5.40036 1.66669 5.61232 1.66669 5.83333C1.66669 6.05435 1.75448 6.26631 1.91076 6.42259C2.06704 6.57887 2.27901 6.66667 2.50002 6.66667H22.5C22.721 6.66667 22.933 6.57887 23.0893 6.42259C23.2456 6.26631 23.3334 6.05435 23.3334 5.83333C23.3334 5.61232 23.2456 5.40036 23.0893 5.24408C22.933 5.0878 22.721 5 22.5 5H2.50002ZM1.66669 12.5C1.66669 12.279 1.75448 12.067 1.91076 11.9107C2.06704 11.7545 2.27901 11.6667 2.50002 11.6667H22.5C22.721 11.6667 22.933 11.7545 23.0893 11.9107C23.2456 12.067 23.3334 12.279 23.3334 12.5C23.3334 12.721 23.2456 12.933 23.0893 13.0893C22.933 13.2455 22.721 13.3333 22.5 13.3333H2.50002C2.27901 13.3333 2.06704 13.2455 1.91076 13.0893C1.75448 12.933 1.66669 12.721 1.66669 12.5V12.5ZM1.66669 19.1667C1.66669 18.9457 1.75448 18.7337 1.91076 18.5774C2.06704 18.4211 2.27901 18.3333 2.50002 18.3333H22.5C22.721 18.3333 22.933 18.4211 23.0893 18.5774C23.2456 18.7337 23.3334 18.9457 23.3334 19.1667C23.3334 19.3877 23.2456 19.5996 23.0893 19.7559C22.933 19.9122 22.721 20 22.5 20H2.50002C2.27901 20 2.06704 19.9122 1.91076 19.7559C1.75448 19.5996 1.66669 19.3877 1.66669 19.1667V19.1667Z" fill="#3F3F3F"/>
</svg>
