<svg width="150" height="150" viewBox="0 0 150 150" fill="none" xmlns="http://www.w3.org/2000/svg">
<path d="M75 0C60.1664 0 45.6659 4.39867 33.3323 12.6398C20.9986 20.8809 11.3856 32.5943 5.70907 46.2987C0.0324951 60.0032 -1.45275 75.0832 1.44114 89.6318C4.33503 104.18 11.4781 117.544 21.967 128.033C32.456 138.522 45.8197 145.665 60.3682 148.559C74.9168 151.453 89.9968 149.968 103.701 144.291C117.406 138.614 129.119 129.001 137.36 116.668C145.601 104.334 150 89.8336 150 75C149.96 55.1209 142.046 36.0674 127.989 22.0108C113.933 7.95413 94.8791 0.0396393 75 0ZM75 144C61.3531 144 48.0127 139.953 36.6657 132.371C25.3187 124.79 16.4748 114.013 11.2523 101.405C6.0299 88.797 4.66347 74.9234 7.32585 61.5388C9.98823 48.1541 16.5598 35.8594 26.2097 26.2096C35.8595 16.5598 48.1541 9.98819 61.5388 7.32581C74.9235 4.66343 88.7971 6.02986 101.405 11.2523C114.013 16.4748 124.79 25.3187 132.371 36.6656C139.953 48.0126 144 61.3531 144 75C143.98 93.2938 136.704 110.833 123.768 123.768C110.833 136.704 93.2939 143.98 75 144ZM42 60C42 58.8133 42.3519 57.6533 43.0112 56.6666C43.6705 55.6799 44.6076 54.9108 45.7039 54.4567C46.8003 54.0026 48.0067 53.8838 49.1706 54.1153C50.3345 54.3468 51.4035 54.9182 52.2427 55.7573C53.0818 56.5965 53.6532 57.6656 53.8847 58.8294C54.1162 59.9933 53.9974 61.1997 53.5433 62.2961C53.0892 63.3924 52.3201 64.3295 51.3334 64.9888C50.3468 65.6481 49.1867 66 48 66C46.4087 66 44.8826 65.3678 43.7574 64.2426C42.6322 63.1174 42 61.5913 42 60ZM96 60C96 58.8133 96.3519 57.6533 97.0112 56.6666C97.6705 55.6799 98.6076 54.9108 99.7039 54.4567C100.8 54.0026 102.007 53.8838 103.171 54.1153C104.334 54.3468 105.404 54.9182 106.243 55.7573C107.082 56.5965 107.653 57.6656 107.885 58.8294C108.116 59.9933 107.997 61.1997 107.543 62.2961C107.089 63.3924 106.32 64.3295 105.333 64.9888C104.347 65.6481 103.187 66 102 66C100.409 66 98.8826 65.3678 97.7574 64.2426C96.6321 63.1174 96 61.5913 96 60ZM108.75 109.5C108.953 109.839 109.087 110.216 109.144 110.607C109.202 110.999 109.181 111.398 109.083 111.781C108.986 112.164 108.813 112.525 108.576 112.841C108.338 113.158 108.041 113.424 107.7 113.625C107.235 113.862 106.722 113.99 106.2 114C105.67 113.997 105.15 113.858 104.69 113.595C104.231 113.332 103.846 112.955 103.575 112.5C100.678 107.485 96.5125 103.321 91.4967 100.426C86.4809 97.5307 80.7914 96.0066 75 96.0066C69.2086 96.0066 63.5192 97.5307 58.5033 100.426C53.4875 103.321 49.3219 107.485 46.425 112.5C46.2461 112.873 45.992 113.205 45.6786 113.475C45.3652 113.745 44.9994 113.947 44.6041 114.069C44.2087 114.191 43.7925 114.23 43.3814 114.183C42.9703 114.137 42.5734 114.005 42.2155 113.798C41.8576 113.591 41.5464 113.311 41.3016 112.978C41.0569 112.644 40.8837 112.264 40.793 111.86C40.7023 111.456 40.6961 111.038 40.7748 110.632C40.8534 110.226 41.0152 109.841 41.25 109.5C44.661 103.564 49.5773 98.6324 55.5029 95.2031C61.4284 91.7738 68.1537 89.9681 75 89.9681C81.8464 89.9681 88.5716 91.7738 94.4972 95.2031C100.423 98.6324 105.339 103.564 108.75 109.5Z" fill="#B4B4B4"/>
</svg>
